<?xml version="1.0" encoding="UTF-8"?>
<svg version="1.1" xmlns="http://www.w3.org/2000/svg" width="13" height="12">
<path d="M0 0 C1.875 0.375 1.875 0.375 4 1 C5.32 1 6.64 1 8 1 C10 3 10 3 10 4.8125 C8.46033505 8.18051709 5.9229055 9.76117877 3 12 C1.96468274 11.09972412 0.94705835 10.17906965 -0.0625 9.25 C-0.63097656 8.73953125 -1.19945313 8.2290625 -1.78515625 7.703125 C-3 6 -3 6 -2.80859375 3.921875 C-2 2 -2 2 0 0 Z " fill="#B6212B" transform="translate(3,0)"/>
<path d="M0 0 C1.9375 0.75 1.9375 0.75 4 2 C4.75 4.125 4.75 4.125 5 6 C4.01 6.66 3.02 7.32 2 8 C1.814375 6.824375 1.814375 6.824375 1.625 5.625 C1.20882007 2.85942178 1.20882007 2.85942178 -1 1 C-0.67 0.67 -0.34 0.34 0 0 Z " fill="#76070E" transform="translate(8,0)"/>
</svg>
